<svg width="262" height="48" viewBox="0 0 262 48" fill="none" xmlns="http://www.w3.org/2000/svg">
<path d="M58.7496 10.2064C58.0624 7.76722 56.0293 5.84295 53.4426 5.18347C48.7655 4 30 4 30 4C30 4 11.244 4 6.55743 5.18347C3.98027 5.83392 1.94718 7.75818 1.2504 10.2064C0 14.6331 0 23.875 0 23.875C0 23.875 0 33.1169 1.2504 37.5436C1.93764 39.9828 3.97073 41.907 6.55743 42.5665C11.244 43.75 30 43.75 30 43.75C30 43.75 48.7655 43.75 53.4426 42.5665C56.0197 41.9161 58.0528 39.9918 58.7496 37.5436C60 33.1169 60 23.875 60 23.875C60 23.875 60 14.6331 58.7496 10.2064Z" fill="#FE0300"/>
<path fill-rule="evenodd" clip-rule="evenodd" d="M28.2161 14.65H40.5807C43.2597 14.65 44.625 16.0139 44.625 18.7156V19.7123H15.375V16.1975C15.375 13.5615 16.6759 12.25 18.9298 12.25H22.6006C23.8757 12.25 24.5325 12.4861 25.3826 13.2205L26.1683 13.8762C26.8123 14.4402 27.3403 14.65 28.2161 14.65ZM40.9671 36.25H19.4193C16.7274 36.25 15.375 34.8992 15.375 32.1844V21.4303H44.625V32.1844C44.625 34.8861 43.2726 36.25 40.9671 36.25ZM32.9966 29.4751C33.8063 29.0124 33.7815 27.8366 32.9531 27.4085L29.0916 25.4129C28.3086 25.0082 27.375 25.5766 27.375 26.458V30.6602C27.375 31.5635 28.3509 32.1299 29.1352 31.6817L32.9966 29.4751Z" fill="white"/>
<path d="M78.32 22.84H81.28C84 22.84 85.36 21.48 85.36 18.76C85.36 16.04 84 14.68 81.28 14.68H78.32V22.84ZM72.8 39V10.12H80.76C84.1733 10.12 86.7067 10.88 88.36 12.4C90.04 13.8933 90.88 16.0133 90.88 18.76C90.88 21.5067 90.04 23.64 88.36 25.16C86.7067 26.6533 84.1733 27.4 80.76 27.4H78.32V39H72.8ZM99.2666 32.44C99.2666 33.2933 99.5332 33.9333 100.067 34.36C100.627 34.7867 101.347 35 102.227 35C103.107 35 103.813 34.7867 104.347 34.36C104.907 33.9333 105.187 33.2933 105.187 32.44V23.8C105.187 22.9467 104.907 22.3067 104.347 21.88C103.813 21.4533 103.107 21.24 102.227 21.24C101.347 21.24 100.627 21.4533 100.067 21.88C99.5332 22.3067 99.2666 22.9467 99.2666 23.8V32.44ZM94.2266 25.08C94.2266 22.2 94.9199 20.1067 96.3066 18.8C97.7199 17.4933 99.6932 16.84 102.227 16.84C104.733 16.84 106.693 17.4933 108.107 18.8C109.52 20.1067 110.227 22.2 110.227 25.08V31.16C110.227 34.04 109.52 36.1333 108.107 37.44C106.693 38.7467 104.733 39.4 102.227 39.4C99.6932 39.4 97.7199 38.7467 96.3066 37.44C94.9199 36.1333 94.2266 34.04 94.2266 31.16V25.08ZM125.187 24.76V23.8C125.187 22.9467 124.907 22.3067 124.347 21.88C123.813 21.4533 123.107 21.24 122.227 21.24C121.347 21.24 120.627 21.4533 120.067 21.88C119.533 22.3067 119.267 22.9467 119.267 23.8V32.44C119.267 33.2933 119.533 33.9333 120.067 34.36C120.627 34.7867 121.347 35 122.227 35C123.107 35 123.813 34.7867 124.347 34.36C124.907 33.9333 125.187 33.2933 125.187 32.44V31.08H130.227V31.16C130.227 34.04 129.52 36.1333 128.107 37.44C126.693 38.7467 124.733 39.4 122.227 39.4C119.693 39.4 117.72 38.7467 116.307 37.44C114.92 36.1333 114.227 34.04 114.227 31.16V25.08C114.227 22.2 114.92 20.1067 116.307 18.8C117.72 17.4933 119.693 16.84 122.227 16.84C124.707 16.84 126.64 17.4667 128.027 18.72C129.413 19.9733 130.133 21.9867 130.187 24.76H125.187ZM134.867 39V10.12H139.907V25.68H139.987L145.347 17.24H150.987L145.987 24.6L151.427 39H146.107L142.427 28.8L139.907 32.36V39H134.867ZM165.187 25.24V24.04C165.187 23.08 164.947 22.32 164.467 21.76C163.987 21.2 163.24 20.92 162.227 20.92C161.213 20.92 160.467 21.2 159.987 21.76C159.507 22.32 159.267 23.08 159.267 24.04V25.24H165.187ZM159.267 29.32V32.2C159.267 33.2933 159.547 34.0933 160.107 34.6C160.667 35.08 161.373 35.32 162.227 35.32C163.293 35.32 164.053 35.0267 164.507 34.44C164.96 33.8533 165.187 33.1333 165.187 32.28H170.227C170.093 34.5467 169.36 36.3067 168.027 37.56C166.72 38.7867 164.787 39.4 162.227 39.4C161.027 39.4 159.933 39.2267 158.947 38.88C157.96 38.5067 157.12 37.9867 156.427 37.32C155.733 36.6533 155.187 35.8533 154.787 34.92C154.413 33.96 154.227 32.88 154.227 31.68V24.56C154.227 23.36 154.413 22.2933 154.787 21.36C155.187 20.4 155.733 19.5867 156.427 18.92C157.12 18.2533 157.96 17.7467 158.947 17.4C159.933 17.0267 161.027 16.84 162.227 16.84C163.4 16.84 164.467 17.0267 165.427 17.4C166.413 17.7467 167.253 18.24 167.947 18.88C168.667 19.52 169.227 20.2933 169.627 21.2C170.027 22.1067 170.227 23.12 170.227 24.24V29.32H159.267ZM172.467 22.28V18.2H174.467V12.28H179.507V18.2H182.747V22.28H179.507V33.4C179.507 33.9333 179.707 34.3333 180.107 34.6C180.533 34.8667 181.093 35 181.787 35C181.973 35 182.147 35 182.307 35C182.467 35 182.627 34.9867 182.787 34.96V39.2C182.307 39.28 181.827 39.3333 181.347 39.36C180.867 39.3867 180.387 39.4 179.907 39.4C178.253 39.4 176.933 39.08 175.947 38.44C174.96 37.7733 174.467 36.6533 174.467 35.08V22.28H172.467ZM202.559 10.12V15H196.119V39H190.599V15H184.159V10.12H202.559ZM218.772 17.24V39H213.892V36.52C212.959 37.32 212.039 38 211.132 38.56C210.252 39.12 209.292 39.4 208.252 39.4C206.705 39.4 205.532 38.9733 204.732 38.12C203.959 37.2667 203.572 35.8267 203.572 33.8V17.24H208.612V33.24C208.612 33.96 208.745 34.5467 209.012 35C209.279 35.4267 209.759 35.64 210.452 35.64C210.985 35.64 211.532 35.44 212.092 35.04C212.652 34.6133 213.199 34.16 213.732 33.68V17.24H218.772ZM228.612 34.08C229.572 35.12 230.585 35.64 231.652 35.64C231.999 35.64 232.319 35.5733 232.612 35.44C232.905 35.3067 233.159 35.0533 233.372 34.68C233.612 34.28 233.799 33.7467 233.932 33.08C234.065 32.4133 234.132 31.5333 234.132 30.44V25.8C234.132 24.7333 234.065 23.8667 233.932 23.2C233.799 22.5067 233.612 21.9733 233.372 21.6C233.159 21.2 232.905 20.9333 232.612 20.8C232.319 20.6667 231.999 20.6 231.652 20.6C230.585 20.6 229.572 21.12 228.612 22.16V34.08ZM223.572 39V10.12H228.612V19.24C229.812 18.36 230.772 17.7467 231.492 17.4C232.239 17.0267 232.959 16.84 233.652 16.84C235.625 16.84 237.039 17.5733 237.892 19.04C238.745 20.5067 239.172 22.6533 239.172 25.48V30.76C239.172 33.5867 238.745 35.7333 237.892 37.2C237.039 38.6667 235.625 39.4 233.652 39.4C233.092 39.4 232.532 39.3067 231.972 39.12C231.439 38.9333 230.932 38.6933 230.452 38.4C229.972 38.1067 229.545 37.7867 229.172 37.44C228.799 37.0667 228.505 36.7067 228.292 36.36H228.212V39H223.572ZM254.132 25.24V24.04C254.132 23.08 253.892 22.32 253.412 21.76C252.932 21.2 252.185 20.92 251.172 20.92C250.159 20.92 249.412 21.2 248.932 21.76C248.452 22.32 248.212 23.08 248.212 24.04V25.24H254.132ZM248.212 29.32V32.2C248.212 33.2933 248.492 34.0933 249.052 34.6C249.612 35.08 250.319 35.32 251.172 35.32C252.239 35.32 252.999 35.0267 253.452 34.44C253.905 33.8533 254.132 33.1333 254.132 32.28H259.172C259.039 34.5467 258.305 36.3067 256.972 37.56C255.665 38.7867 253.732 39.4 251.172 39.4C249.972 39.4 248.879 39.2267 247.892 38.88C246.905 38.5067 246.065 37.9867 245.372 37.32C244.679 36.6533 244.132 35.8533 243.732 34.92C243.359 33.96 243.172 32.88 243.172 31.68V24.56C243.172 23.36 243.359 22.2933 243.732 21.36C244.132 20.4 244.679 19.5867 245.372 18.92C246.065 18.2533 246.905 17.7467 247.892 17.4C248.879 17.0267 249.972 16.84 251.172 16.84C252.345 16.84 253.412 17.0267 254.372 17.4C255.359 17.7467 256.199 18.24 256.892 18.88C257.612 19.52 258.172 20.2933 258.572 21.2C258.972 22.1067 259.172 23.12 259.172 24.24V29.32H248.212Z" fill="#282828"/>
</svg>
